<svg version="1.2" xmlns="http://www.w3.org/2000/svg" viewBox="0 0 480 480" width="480" height="480">
	<title>New Project</title>
	<style>
		.s0 { fill: #244065 } 
		.s1 { fill: #3498db } 
	</style>
	<g id="Layer 1">
		<path id="&lt;Path&gt;" fill-rule="evenodd" class="s0" d="m439.8 177.9c-10.2 0-18.4-8.3-18.4-18.4 0-10.2 8.2-18.4 18.4-18.4 10.2 0 18.4 8.2 18.4 18.4 0 10.1-8.2 18.4-18.4 18.4z"/>
		<path id="&lt;Path&gt;" fill-rule="evenodd" class="s0" d="m450.2 180.6c4.1 20.7 14.4 83.4 2.5 141.5l-7.9-0.5c4-18.6 5.1-39.4 5.1-39.4-2 15.5-6 31.3-8.2 39.2l-5.3-0.4c2.6-11.3 4-20.7 4-20.7-1.6 7.2-3.7 14.4-5.7 20.6l-20.7-1.5c0 0 26.2-44 24.2-136.4q0.8 0 1.6 0c3.8 0 7.3-0.9 10.4-2.4z"/>
		<path id="&lt;Path&gt;" fill-rule="evenodd" class="s1" d="m328 237.2l52.5 50.4 1.6 1.5-138.4 179.9v-137.7c8.3-1.6 14.6-9 14.6-17.8 0-10-8.1-18.1-18.1-18.1-10 0-18.1 8.1-18.1 18.1 0 8.8 6.3 16.2 14.6 17.8v137.7l-138.4-179.9 1.6-1.5 52.5-50.4c-1-7.9 176.6-7.9 175.6 0z"/>
		<path id="&lt;Path&gt;" fill-rule="evenodd" class="s0" d="m240.2 11l239.8 97.8-47.3 19.3c3.9 5.8 7.1 11.6 9.5 18.2-2.6 0-5.1 0.5-7.3 1.4-2.3-6-5.4-11.4-9.1-16.8l-0.1-0.1-0.1-0.2-0.1-0.1-0.1-0.2-0.1-0.1v-0.1h-0.1l-0.1-0.2-0.1-0.1-0.1-0.2-0.1-0.1-0.1-0.1-0.1-0.2-0.1-0.1-0.1-0.1v-0.1l-0.1-0.1-0.1-0.1v-0.1l-0.1-0.1-0.1-0.1-0.1-0.2-0.1-0.1-0.2-0.3-0.1-0.1-0.1-0.2-0.1-0.1-0.1-0.1-0.1-0.2-0.1-0.1-0.1-0.2-0.1-0.1-0.1-0.1v-0.1l-0.1-0.1-0.2-0.1v-0.1l-0.1-0.1-0.1-0.1-0.1-0.2-0.1-0.1-0.1-0.1-0.1-0.2-0.1-0.1-0.1-0.2-0.1-0.1-0.1-0.2-0.2-0.2h-0.1l-0.1-0.2-0.1-0.1v-0.1l-0.1-0.1-0.1-0.1-0.1-0.2-0.1-0.1-0.1-0.1-0.1-0.2h-0.1l-0.1-0.1-0.1-0.2-0.1-0.1-0.1-0.1-0.1-0.2-0.1-0.1-0.1-0.2-0.2-0.1-0.1-0.2-0.1-0.1-0.1-0.2c2.2 3.6 3.8 7.2 4.9 9.9l-62.3 25.4v92.1c-1.1-37.9-243.5-36-242.8 0q0-57 0-114.1 83.8-14.9 167.6-9.2c-56.8-6.3-113.7-5.1-172.7 5.3v23.8l-113.3-46.2z"/>
	</g>
</svg>